# xmcd
#
# Track frame offsets: 
#        150
#        13392
#        28245
#        44042
#        66917
#        79067
#        97537
#        117750
#        139475
#        155972
#        170002
#        187892
#        204397
#        226560
#        238965
#        257627
#        273385
#        285160
#
# Disc length: 3955 seconds
#
# Revision: 3
# Processed by: cddbd v1.5.2PL0 Copyright (c) Steve Scherf et al.
# Submitted via: ExactAudioCopy v0.95b2
#
DISCID=fe0f7112
DTITLE=Angy Burri and The Apaches - Hokahe
DYEAR=1995
DGENRE=Country
TTITLE0=Six Days
TTITLE1=Mess Of Blues
TTITLE2=Lights Of Cheyenne
TTITLE3=Ghost Rider
TTITLE4=Route 66
TTITLE5=Hill Billy Highway
TTITLE6=Amazing Grace
TTITLE7=Peter Gunn (Harley-Davidson Mix)
TTITLE8=Hokahe
TTITLE9=Wolfer Song
TTITLE10=Road Song
TTITLE11=Seven Spanish Angels
TTITLE12=Albatros
TTITLE13=I Really Like Girls
TTITLE14=Montana Cafe
TTITLE15=Old Time Rock'n'Roll
TTITLE16=Memphis Tennessee
TTITLE17=Loving Her
EXTD=
EXTT0=
EXTT1=
EXTT2=
EXTT3=
EXTT4=
EXTT5=
EXTT6=
EXTT7=
EXTT8=
EXTT9=
EXTT10=
EXTT11=
EXTT12=
EXTT13=
EXTT14=
EXTT15=
EXTT16=
EXTT17=
PLAYORDER=
